<svg width="88" height="20" viewBox="0 0 88 20" fill="none" xmlns="http://www.w3.org/2000/svg">
<path d="M31.346 10.052L28.182 3.78H29.918L32.466 8.932L31.976 8.778H33.46L32.942 8.932L35.308 3.78H36.946L33.992 10.052H31.346ZM31.85 14V9.758H33.488V14H31.85ZM41.1269 14.252C40.4642 14.252 39.8809 14.1447 39.3769 13.93C38.8729 13.706 38.4482 13.412 38.1029 13.048C37.7575 12.684 37.4962 12.2733 37.3189 11.816C37.1415 11.3493 37.0529 10.8687 37.0529 10.374V10.094C37.0529 9.59933 37.1415 9.11867 37.3189 8.652C37.5055 8.18533 37.7715 7.77 38.1169 7.406C38.4715 7.03267 38.9009 6.73867 39.4049 6.524C39.9089 6.30933 40.4829 6.202 41.1269 6.202C41.7709 6.202 42.3402 6.30933 42.8349 6.524C43.3389 6.73867 43.7682 7.03267 44.1229 7.406C44.4775 7.77 44.7435 8.18533 44.9209 8.652C45.1075 9.11867 45.2009 9.59933 45.2009 10.094V10.374C45.2009 10.8687 45.1122 11.3493 44.9349 11.816C44.7575 12.2733 44.4962 12.684 44.1509 13.048C43.8055 13.412 43.3809 13.706 42.8769 13.93C42.3729 14.1447 41.7895 14.252 41.1269 14.252ZM41.1269 12.824C41.6402 12.824 42.0789 12.712 42.4429 12.488C42.8069 12.2547 43.0822 11.942 43.2689 11.55C43.4649 11.158 43.5629 10.7193 43.5629 10.234C43.5629 9.73933 43.4649 9.296 43.2689 8.904C43.0729 8.512 42.7929 8.204 42.4289 7.98C42.0649 7.74667 41.6309 7.63 41.1269 7.63C40.6229 7.63 40.1889 7.74667 39.8249 7.98C39.4609 8.204 39.1809 8.512 38.9849 8.904C38.7889 9.296 38.6909 9.73933 38.6909 10.234C38.6909 10.7193 38.7842 11.158 38.9709 11.55C39.1669 11.942 39.4469 12.2547 39.8109 12.488C40.1749 12.712 40.6135 12.824 41.1269 12.824ZM49.6631 14.224C48.7765 14.224 48.0951 13.9393 47.6191 13.37C47.1431 12.7913 46.9051 11.942 46.9051 10.822V6.454H48.5431V11.046C48.5431 11.5687 48.6878 11.984 48.9771 12.292C49.2665 12.5907 49.6585 12.74 50.1531 12.74C50.6571 12.74 51.0678 12.5813 51.3851 12.264C51.7118 11.9373 51.8751 11.494 51.8751 10.934V6.454H53.5131V14H52.2111V10.78H52.3791C52.3791 11.536 52.2765 12.1707 52.0711 12.684C51.8751 13.188 51.5811 13.5707 51.1891 13.832C50.8065 14.0933 50.3211 14.224 49.7331 14.224H49.6631ZM59.0402 14.084C58.4149 14.084 57.8875 14 57.4582 13.832C57.0289 13.664 56.7022 13.3747 56.4782 12.964C56.2635 12.5533 56.1562 11.998 56.1562 11.298V4.256H57.7102V11.438C57.7102 11.83 57.8129 12.1333 58.0182 12.348C58.2329 12.5533 58.5315 12.656 58.9142 12.656H60.1742V14.084H59.0402ZM54.9102 7.672V6.454H60.1742V7.672H54.9102ZM64.5381 14.224C63.6515 14.224 62.9701 13.9393 62.4941 13.37C62.0181 12.7913 61.7801 11.942 61.7801 10.822V6.454H63.4181V11.046C63.4181 11.5687 63.5628 11.984 63.8521 12.292C64.1415 12.5907 64.5335 12.74 65.0281 12.74C65.5321 12.74 65.9428 12.5813 66.2601 12.264C66.5868 11.9373 66.7501 11.494 66.7501 10.934V6.454H68.3881V14H67.0861V10.78H67.2541C67.2541 11.536 67.1515 12.1707 66.9461 12.684C66.7501 13.188 66.4561 13.5707 66.0641 13.832C65.6815 14.0933 65.1961 14.224 64.6081 14.224H64.5381ZM75.0212 14.252C74.4052 14.252 73.8545 14.1167 73.3692 13.846C72.8932 13.5753 72.5152 13.1833 72.2352 12.67C71.9645 12.1567 71.8152 11.536 71.7872 10.808H72.1232V14H70.8212V3.78H72.4592V8.82L71.9692 9.73C71.9972 8.92733 72.1512 8.26933 72.4312 7.756C72.7205 7.23333 73.0985 6.846 73.5652 6.594C74.0319 6.342 74.5545 6.216 75.1332 6.216C75.6652 6.216 76.1459 6.314 76.5752 6.51C77.0139 6.706 77.3872 6.98133 77.6952 7.336C78.0125 7.68133 78.2505 8.08733 78.4092 8.554C78.5772 9.02067 78.6612 9.52467 78.6612 10.066V10.346C78.6612 10.8873 78.5772 11.3913 78.4092 11.858C78.2412 12.3247 77.9939 12.74 77.6672 13.104C77.3499 13.4587 76.9672 13.7387 76.5192 13.944C76.0712 14.1493 75.5719 14.252 75.0212 14.252ZM74.7272 12.838C75.1845 12.838 75.5859 12.726 75.9312 12.502C76.2765 12.278 76.5425 11.97 76.7292 11.578C76.9252 11.1767 77.0232 10.7193 77.0232 10.206C77.0232 9.68333 76.9252 9.23067 76.7292 8.848C76.5332 8.456 76.2625 8.15267 75.9172 7.938C75.5812 7.72333 75.1845 7.616 74.7272 7.616C74.3165 7.616 73.9339 7.70933 73.5792 7.896C73.2245 8.08267 72.9399 8.35333 72.7252 8.708C72.5105 9.05333 72.4032 9.47333 72.4032 9.968V10.57C72.4032 11.046 72.5105 11.4567 72.7252 11.802C72.9492 12.138 73.2385 12.3947 73.5932 12.572C73.9479 12.7493 74.3259 12.838 74.7272 12.838ZM83.8319 14.252C83.1786 14.252 82.6092 14.14 82.1239 13.916C81.6386 13.692 81.2419 13.398 80.9339 13.034C80.6259 12.6607 80.3926 12.2453 80.2339 11.788C80.0846 11.3213 80.0099 10.8453 80.0099 10.36V10.094C80.0099 9.59933 80.0846 9.12333 80.2339 8.666C80.3926 8.19933 80.6259 7.784 80.9339 7.42C81.2419 7.04667 81.6292 6.75267 82.0959 6.538C82.5719 6.314 83.1226 6.202 83.7479 6.202C84.5599 6.202 85.2366 6.37933 85.7779 6.734C86.3192 7.08867 86.7252 7.55067 86.9959 8.12C87.2666 8.68 87.4019 9.28667 87.4019 9.94V10.598H80.7099V9.492H86.2959L85.8479 10.052C85.8479 9.548 85.7686 9.114 85.6099 8.75C85.4512 8.37667 85.2179 8.092 84.9099 7.896C84.6019 7.69067 84.2146 7.588 83.7479 7.588C83.2626 7.588 82.8566 7.7 82.5299 7.924C82.2032 8.148 81.9606 8.456 81.8019 8.848C81.6432 9.24 81.5639 9.702 81.5639 10.234C81.5639 10.738 81.6432 11.1907 81.8019 11.592C81.9606 11.984 82.2079 12.2967 82.5439 12.53C82.8799 12.754 83.3092 12.866 83.8319 12.866C84.3546 12.866 84.7839 12.754 85.1199 12.53C85.4559 12.2967 85.6612 12.026 85.7359 11.718H87.2619C87.1592 12.2313 86.9492 12.6793 86.6319 13.062C86.3239 13.4447 85.9319 13.7387 85.4559 13.944C84.9799 14.1493 84.4386 14.252 83.8319 14.252Z" fill="white"/>
<path d="M17.9942 6.00247C17.8992 5.6503 17.7138 5.32914 17.4561 5.07094C17.1985 4.81274 16.8778 4.62652 16.5258 4.5308C15.2208 4.17247 10 4.16663 10 4.16663C10 4.16663 4.78 4.1608 3.47417 4.5033C3.12244 4.60342 2.80235 4.79228 2.54464 5.05174C2.28692 5.31121 2.10024 5.63257 2.0025 5.98497C1.65833 7.28997 1.655 9.99663 1.655 9.99663C1.655 9.99663 1.65167 12.7166 1.99333 14.0083C2.185 14.7225 2.7475 15.2866 3.4625 15.4791C4.78083 15.8375 9.9875 15.8433 9.9875 15.8433C9.9875 15.8433 15.2083 15.8491 16.5133 15.5075C16.8654 15.4119 17.1865 15.2261 17.4447 14.9684C17.703 14.7108 17.8895 14.3902 17.9858 14.0383C18.3308 12.7341 18.3333 10.0283 18.3333 10.0283C18.3333 10.0283 18.35 7.30747 17.9942 6.00247ZM8.33 12.5041L8.33417 7.50413L12.6733 10.0083L8.33 12.5041Z" fill="white"/>
</svg>
