<svg width="90" height="20" viewBox="0 0 90 20" fill="none" xmlns="http://www.w3.org/2000/svg">
<path d="M29.372 17V6.78H31.052V17H29.372ZM30.772 17V15.502H35.322V17H30.772ZM37.2516 17V9.454H38.8896V17H37.2516ZM36.1456 10.714V9.454H38.8896V10.714H36.1456ZM37.7836 8.404C37.4476 8.404 37.1956 8.31533 37.0276 8.138C36.8689 7.96067 36.7896 7.732 36.7896 7.452C36.7896 7.18133 36.8689 6.95733 37.0276 6.78C37.1956 6.59333 37.4476 6.5 37.7836 6.5C38.1289 6.5 38.3809 6.59333 38.5396 6.78C38.7076 6.95733 38.7916 7.18133 38.7916 7.452C38.7916 7.732 38.7076 7.96067 38.5396 8.138C38.3809 8.31533 38.1289 8.404 37.7836 8.404ZM41.331 17V9.454H42.633V12.688H42.479C42.479 11.9413 42.577 11.3113 42.773 10.798C42.9783 10.2847 43.2863 9.89733 43.697 9.636C44.1076 9.36533 44.6163 9.23 45.223 9.23H45.293C46.2263 9.23 46.9216 9.524 47.379 10.112C47.8363 10.7 48.065 11.5587 48.065 12.688V17H46.427V12.464C46.427 11.9413 46.2776 11.5213 45.979 11.204C45.6803 10.8773 45.2696 10.714 44.747 10.714C44.215 10.714 43.7856 10.882 43.459 11.218C43.1323 11.5447 42.969 11.9833 42.969 12.534V17H41.331ZM55.5767 17L52.8887 13.486H51.7127L55.0307 9.454H56.7667L53.7147 13.122L53.7847 12.282L57.4527 17H55.5767ZM50.3407 17V6.78H51.9787V17H50.3407ZM61.7518 17.252C61.0985 17.252 60.5291 17.14 60.0438 16.916C59.5585 16.692 59.1618 16.398 58.8538 16.034C58.5458 15.6607 58.3125 15.2453 58.1538 14.788C58.0045 14.3213 57.9298 13.8453 57.9298 13.36V13.094C57.9298 12.5993 58.0045 12.1233 58.1538 11.666C58.3125 11.1993 58.5458 10.784 58.8538 10.42C59.1618 10.0467 59.5491 9.75267 60.0158 9.538C60.4918 9.314 61.0425 9.202 61.6678 9.202C62.4798 9.202 63.1565 9.37933 63.6978 9.734C64.2391 10.0887 64.6451 10.5507 64.9158 11.12C65.1865 11.68 65.3218 12.2867 65.3218 12.94V13.598H58.6298V12.492H64.2158L63.7678 13.052C63.7678 12.548 63.6885 12.114 63.5298 11.75C63.3711 11.3767 63.1378 11.092 62.8298 10.896C62.5218 10.6907 62.1345 10.588 61.6678 10.588C61.1825 10.588 60.7765 10.7 60.4498 10.924C60.1231 11.148 59.8805 11.456 59.7218 11.848C59.5631 12.24 59.4838 12.702 59.4838 13.234C59.4838 13.738 59.5631 14.1907 59.7218 14.592C59.8805 14.984 60.1278 15.2967 60.4638 15.53C60.7998 15.754 61.2291 15.866 61.7518 15.866C62.2745 15.866 62.7038 15.754 63.0398 15.53C63.3758 15.2967 63.5811 15.026 63.6558 14.718H65.1818C65.0791 15.2313 64.8691 15.6793 64.5518 16.062C64.2438 16.4447 63.8518 16.7387 63.3758 16.944C62.8998 17.1493 62.3585 17.252 61.7518 17.252ZM70.2248 17.252C69.6834 17.252 69.1888 17.154 68.7408 16.958C68.3021 16.762 67.9148 16.4867 67.5788 16.132C67.2521 15.7773 67.0001 15.3667 66.8228 14.9C66.6454 14.4333 66.5568 13.9247 66.5568 13.374V13.108C66.5568 12.5667 66.6408 12.0627 66.8088 11.596C66.9861 11.12 67.2334 10.7047 67.5508 10.35C67.8681 9.99533 68.2461 9.72 68.6848 9.524C69.1328 9.31867 69.6274 9.216 70.1688 9.216C70.7474 9.216 71.2654 9.342 71.7228 9.594C72.1894 9.83667 72.5628 10.2147 72.8428 10.728C73.1321 11.232 73.2908 11.876 73.3188 12.66L72.7588 11.89V6.78H74.3968V17H73.0948V13.724H73.4588C73.4308 14.536 73.2628 15.2033 72.9548 15.726C72.6561 16.2487 72.2688 16.636 71.7928 16.888C71.3168 17.1307 70.7941 17.252 70.2248 17.252ZM70.5328 15.838C70.9528 15.838 71.3308 15.7447 71.6668 15.558C72.0121 15.3713 72.2874 15.1007 72.4928 14.746C72.7074 14.382 72.8148 13.9573 72.8148 13.472V12.87C72.8148 12.394 72.7074 11.988 72.4928 11.652C72.2781 11.316 71.9981 11.0593 71.6528 10.882C71.3074 10.7047 70.9294 10.616 70.5188 10.616C70.0614 10.616 69.6554 10.728 69.3008 10.952C68.9554 11.1667 68.6848 11.47 68.4888 11.862C68.2928 12.254 68.1948 12.7113 68.1948 13.234C68.1948 13.766 68.2928 14.228 68.4888 14.62C68.6941 15.012 68.9741 15.3153 69.3288 15.53C69.6834 15.7353 70.0848 15.838 70.5328 15.838ZM77.1735 17V9.454H78.8115V17H77.1735ZM76.0675 10.714V9.454H78.8115V10.714H76.0675ZM77.7055 8.404C77.3695 8.404 77.1175 8.31533 76.9495 8.138C76.7908 7.96067 76.7115 7.732 76.7115 7.452C76.7115 7.18133 76.7908 6.95733 76.9495 6.78C77.1175 6.59333 77.3695 6.5 77.7055 6.5C78.0508 6.5 78.3028 6.59333 78.4615 6.78C78.6295 6.95733 78.7135 7.18133 78.7135 7.452C78.7135 7.732 78.6295 7.96067 78.4615 8.138C78.3028 8.31533 78.0508 8.404 77.7055 8.404ZM81.2528 17V9.454H82.5548V12.688H82.4008C82.4008 11.9413 82.4988 11.3113 82.6948 10.798C82.9002 10.2847 83.2082 9.89733 83.6188 9.636C84.0295 9.36533 84.5382 9.23 85.1448 9.23H85.2148C86.1482 9.23 86.8435 9.524 87.3008 10.112C87.7582 10.7 87.9868 11.5587 87.9868 12.688V17H86.3488V12.464C86.3488 11.9413 86.1995 11.5213 85.9008 11.204C85.6022 10.8773 85.1915 10.714 84.6688 10.714C84.1368 10.714 83.7075 10.882 83.3808 11.218C83.0542 11.5447 82.8908 11.9833 82.8908 12.534V17H81.2528Z" fill="white"/>
<path d="M4.1525 5.9975C5.1595 5.9975 5.97583 5.18116 5.97583 4.17416C5.97583 3.16716 5.1595 2.35083 4.1525 2.35083C3.1455 2.35083 2.32916 3.16716 2.32916 4.17416C2.32916 5.18116 3.1455 5.9975 4.1525 5.9975Z" fill="white"/>
<path d="M7.6975 7.37915V17.495H10.8383V12.4925C10.8383 11.1725 11.0867 9.89415 12.7233 9.89415C14.3375 9.89415 14.3575 11.4033 14.3575 12.5758V17.4958H17.5V11.9483C17.5 9.22332 16.9133 7.12915 13.7283 7.12915C12.1992 7.12915 11.1742 7.96832 10.755 8.76248H10.7125V7.37915H7.6975V7.37915ZM2.57916 7.37915H5.725V17.495H2.57916V7.37915Z" fill="white"/>
</svg>
