<svg width="101" height="20" viewBox="0 0 101 20" fill="none" xmlns="http://www.w3.org/2000/svg">
<path d="M29.4 15V4.78H31.08V15H29.4ZM33.6884 15V7.454H34.9904V10.688H34.8364C34.8364 9.94133 34.9344 9.31133 35.1304 8.798C35.3357 8.28467 35.6437 7.89733 36.0544 7.636C36.465 7.36533 36.9737 7.23 37.5804 7.23H37.6504C38.5837 7.23 39.279 7.524 39.7364 8.112C40.1937 8.7 40.4224 9.55867 40.4224 10.688V15H38.7844V10.464C38.7844 9.94133 38.635 9.52133 38.3364 9.204C38.0377 8.87733 37.627 8.714 37.1044 8.714C36.5724 8.714 36.143 8.882 35.8164 9.218C35.4897 9.54467 35.3264 9.98333 35.3264 10.534V15H33.6884ZM45.3021 15.224C44.2848 15.224 43.4915 15.0093 42.9221 14.58C42.3621 14.1507 42.0681 13.558 42.0401 12.802H43.5521C43.5708 13.082 43.7155 13.3387 43.9861 13.572C44.2568 13.8053 44.7001 13.922 45.3161 13.922C45.8388 13.922 46.2495 13.8193 46.5481 13.614C46.8468 13.4087 46.9961 13.152 46.9961 12.844C46.9961 12.564 46.8841 12.3447 46.6601 12.186C46.4455 12.018 46.0768 11.906 45.5541 11.85L44.8121 11.78C44.0375 11.696 43.4215 11.4673 42.9641 11.094C42.5161 10.7207 42.2921 10.2167 42.2921 9.582C42.2921 9.078 42.4181 8.65333 42.6701 8.308C42.9221 7.96267 43.2675 7.69667 43.7061 7.51C44.1541 7.32333 44.6675 7.23 45.2461 7.23C46.1421 7.23 46.8655 7.43067 47.4161 7.832C47.9668 8.224 48.2515 8.80267 48.2701 9.568H46.7721C46.7535 9.27867 46.6181 9.036 46.3661 8.84C46.1141 8.644 45.7408 8.546 45.2461 8.546C44.7795 8.546 44.4201 8.63933 44.1681 8.826C43.9255 9.01267 43.8041 9.25067 43.8041 9.54C43.8041 9.80133 43.8975 10.0067 44.0841 10.156C44.2708 10.3053 44.5741 10.4033 44.9941 10.45L45.7361 10.52C46.5855 10.6133 47.2575 10.8513 47.7521 11.234C48.2561 11.6073 48.5081 12.13 48.5081 12.802C48.5081 13.2873 48.3728 13.712 48.1021 14.076C47.8315 14.44 47.4535 14.7247 46.9681 14.93C46.4921 15.126 45.9368 15.224 45.3021 15.224ZM53.3937 15.084C52.7684 15.084 52.241 15 51.8117 14.832C51.3824 14.664 51.0557 14.3747 50.8317 13.964C50.617 13.5533 50.5097 12.998 50.5097 12.298V5.256H52.0637V12.438C52.0637 12.83 52.1664 13.1333 52.3717 13.348C52.5864 13.5533 52.885 13.656 53.2677 13.656H54.5277V15.084H53.3937ZM49.2637 8.672V7.454H54.5277V8.672H49.2637ZM60.8243 15V12.746H60.5583V10.198C60.5583 9.73133 60.437 9.37667 60.1943 9.134C59.9516 8.89133 59.5923 8.77 59.1163 8.77C58.855 8.77 58.5656 8.77467 58.2483 8.784C57.931 8.79333 57.6183 8.80733 57.3103 8.826C57.0116 8.83533 56.7456 8.84933 56.5123 8.868V7.454C56.7176 7.43533 56.9416 7.42133 57.1843 7.412C57.4363 7.39333 57.693 7.37933 57.9543 7.37C58.225 7.36067 58.4816 7.356 58.7243 7.356C59.4896 7.356 60.1243 7.454 60.6283 7.65C61.1323 7.846 61.5056 8.15867 61.7483 8.588C62.0003 9.008 62.1263 9.57267 62.1263 10.282V15H60.8243ZM58.3743 15.196C57.8236 15.196 57.343 15.1027 56.9323 14.916C56.5216 14.72 56.2043 14.44 55.9803 14.076C55.7563 13.7027 55.6443 13.2593 55.6443 12.746C55.6443 12.2047 55.7703 11.7567 56.0223 11.402C56.2836 11.0473 56.6523 10.7813 57.1283 10.604C57.6043 10.4267 58.1736 10.338 58.8363 10.338H60.7263V11.416H58.7943C58.2996 11.416 57.9216 11.5373 57.6603 11.78C57.399 12.0133 57.2683 12.3213 57.2683 12.704C57.2683 13.0867 57.399 13.3947 57.6603 13.628C57.9216 13.852 58.2996 13.964 58.7943 13.964C59.0836 13.964 59.359 13.9127 59.6203 13.81C59.8816 13.698 60.0963 13.516 60.2643 13.264C60.4416 13.012 60.5396 12.6573 60.5583 12.2L60.9783 12.746C60.9316 13.278 60.801 13.726 60.5863 14.09C60.381 14.4447 60.0916 14.72 59.7183 14.916C59.3543 15.1027 58.9063 15.196 58.3743 15.196ZM67.2931 17.954C66.9384 17.954 66.5791 17.94 66.2151 17.912C65.8511 17.884 65.5104 17.8467 65.1931 17.8V16.414C65.5291 16.4607 65.8837 16.498 66.2571 16.526C66.6397 16.5633 66.9944 16.582 67.3211 16.582C67.9744 16.582 68.4971 16.498 68.8891 16.33C69.2904 16.162 69.5797 15.9007 69.7571 15.546C69.9437 15.2007 70.0371 14.748 70.0371 14.188V12.732L70.4711 11.724C70.4431 12.452 70.2891 13.0633 70.0091 13.558C69.7384 14.0527 69.3744 14.426 68.9171 14.678C68.4691 14.93 67.9557 15.056 67.3771 15.056C66.8544 15.056 66.3784 14.958 65.9491 14.762C65.5197 14.566 65.1511 14.2907 64.8431 13.936C64.5351 13.5813 64.2971 13.1753 64.1291 12.718C63.9611 12.2513 63.8771 11.7567 63.8771 11.234V10.968C63.8771 10.436 63.9611 9.94133 64.1291 9.484C64.3064 9.02667 64.5537 8.63 64.8711 8.294C65.1884 7.94867 65.5664 7.68267 66.0051 7.496C66.4531 7.30933 66.9431 7.216 67.4751 7.216C68.0911 7.216 68.6324 7.35133 69.0991 7.622C69.5751 7.88333 69.9484 8.27067 70.2191 8.784C70.4897 9.29733 70.6344 9.92267 70.6531 10.66L70.2891 10.702V7.454H71.5911V14.104C71.5911 15.0187 71.4417 15.756 71.1431 16.316C70.8537 16.8853 70.3917 17.3007 69.7571 17.562C69.1317 17.8233 68.3104 17.954 67.2931 17.954ZM67.7831 13.6C68.1937 13.6 68.5671 13.5113 68.9031 13.334C69.2484 13.1473 69.5191 12.886 69.7151 12.55C69.9204 12.2047 70.0231 11.794 70.0231 11.318V10.744C70.0231 10.2773 69.9157 9.88533 69.7011 9.568C69.4957 9.24133 69.2251 8.994 68.8891 8.826C68.5531 8.658 68.1891 8.574 67.7971 8.574C67.3491 8.574 66.9524 8.68133 66.6071 8.896C66.2617 9.10133 65.9911 9.39533 65.7951 9.778C65.6084 10.1513 65.5151 10.59 65.5151 11.094C65.5151 11.6073 65.6131 12.0553 65.8091 12.438C66.0051 12.8113 66.2711 13.1007 66.6071 13.306C66.9524 13.502 67.3444 13.6 67.7831 13.6ZM73.911 15V7.454H75.213V10.604H75.157C75.157 9.52133 75.395 8.714 75.871 8.182C76.347 7.64067 77.0517 7.37 77.985 7.37H78.251V8.812H77.747C77.0377 8.812 76.4917 9.00333 76.109 9.386C75.7357 9.75933 75.549 10.296 75.549 10.996V15H73.911ZM84.2306 15V12.746H83.9646V10.198C83.9646 9.73133 83.8432 9.37667 83.6006 9.134C83.3579 8.89133 82.9986 8.77 82.5226 8.77C82.2612 8.77 81.9719 8.77467 81.6546 8.784C81.3372 8.79333 81.0246 8.80733 80.7166 8.826C80.4179 8.83533 80.1519 8.84933 79.9186 8.868V7.454C80.1239 7.43533 80.3479 7.42133 80.5906 7.412C80.8426 7.39333 81.0992 7.37933 81.3606 7.37C81.6312 7.36067 81.8879 7.356 82.1306 7.356C82.8959 7.356 83.5306 7.454 84.0346 7.65C84.5386 7.846 84.9119 8.15867 85.1546 8.588C85.4066 9.008 85.5326 9.57267 85.5326 10.282V15H84.2306ZM81.7806 15.196C81.2299 15.196 80.7492 15.1027 80.3386 14.916C79.9279 14.72 79.6106 14.44 79.3866 14.076C79.1626 13.7027 79.0506 13.2593 79.0506 12.746C79.0506 12.2047 79.1766 11.7567 79.4286 11.402C79.6899 11.0473 80.0586 10.7813 80.5346 10.604C81.0106 10.4267 81.5799 10.338 82.2426 10.338H84.1326V11.416H82.2006C81.7059 11.416 81.3279 11.5373 81.0666 11.78C80.8052 12.0133 80.6746 12.3213 80.6746 12.704C80.6746 13.0867 80.8052 13.3947 81.0666 13.628C81.3279 13.852 81.7059 13.964 82.2006 13.964C82.4899 13.964 82.7652 13.9127 83.0266 13.81C83.2879 13.698 83.5026 13.516 83.6706 13.264C83.8479 13.012 83.9459 12.6573 83.9646 12.2L84.3846 12.746C84.3379 13.278 84.2072 13.726 83.9926 14.09C83.7872 14.4447 83.4979 14.72 83.1246 14.916C82.7606 15.1027 82.3126 15.196 81.7806 15.196ZM87.8153 15V7.454H89.1173V10.702H88.9633C88.9633 9.95533 89.0567 9.32533 89.2433 8.812C89.4393 8.29867 89.7287 7.90667 90.1113 7.636C90.5033 7.36533 90.9887 7.23 91.5673 7.23H91.6373C92.2253 7.23 92.7107 7.36533 93.0933 7.636C93.4853 7.90667 93.7747 8.29867 93.9613 8.812C94.1573 9.32533 94.2553 9.95533 94.2553 10.702H93.8073C93.8073 9.95533 93.9053 9.32533 94.1013 8.812C94.2973 8.29867 94.5913 7.90667 94.9833 7.636C95.3753 7.36533 95.8607 7.23 96.4393 7.23H96.5093C97.0973 7.23 97.5873 7.36533 97.9793 7.636C98.3713 7.90667 98.6653 8.29867 98.8613 8.812C99.0573 9.32533 99.1553 9.95533 99.1553 10.702V15H97.5173V10.464C97.5173 9.91333 97.3773 9.484 97.0973 9.176C96.8267 8.868 96.4487 8.714 95.9633 8.714C95.4593 8.714 95.058 8.87733 94.7593 9.204C94.4607 9.52133 94.3113 9.96467 94.3113 10.534V15H92.6593V10.464C92.6593 9.91333 92.524 9.484 92.2533 9.176C91.9827 8.868 91.6047 8.714 91.1193 8.714C90.6153 8.714 90.2093 8.87733 89.9013 9.204C89.6027 9.52133 89.4533 9.96467 89.4533 10.534V15H87.8153Z" fill="white"/>
<path d="M9.99918 6.14746C8.97721 6.14746 7.9971 6.55344 7.27446 7.27608C6.55182 7.99872 6.14584 8.97883 6.14584 10.0008C6.14584 11.0228 6.55182 12.0029 7.27446 12.7255C7.9971 13.4482 8.97721 13.8541 9.99918 13.8541C11.0211 13.8541 12.0013 13.4482 12.7239 12.7255C13.4465 12.0029 13.8525 11.0228 13.8525 10.0008C13.8525 8.97883 13.4465 7.99872 12.7239 7.27608C12.0013 6.55344 11.0211 6.14746 9.99918 6.14746ZM9.99918 12.5033C9.33525 12.5033 8.69852 12.2396 8.22905 11.7701C7.75959 11.3006 7.49584 10.6639 7.49584 9.99996C7.49584 9.33604 7.75959 8.6993 8.22905 8.22984C8.69852 7.76037 9.33525 7.49663 9.99918 7.49663C10.6631 7.49663 11.2998 7.76037 11.7693 8.22984C12.2388 8.6993 12.5025 9.33604 12.5025 9.99996C12.5025 10.6639 12.2388 11.3006 11.7693 11.7701C11.2998 12.2396 10.6631 12.5033 9.99918 12.5033Z" fill="white"/>
<path d="M14.005 6.90421C14.5011 6.90421 14.9033 6.50201 14.9033 6.00588C14.9033 5.50974 14.5011 5.10754 14.005 5.10754C13.5089 5.10754 13.1067 5.50974 13.1067 6.00588C13.1067 6.50201 13.5089 6.90421 14.005 6.90421Z" fill="white"/>
<path d="M17.1108 5.09248C16.9179 4.5943 16.6231 4.14189 16.2453 3.7642C15.8675 3.38651 15.4149 3.09188 14.9167 2.89915C14.3336 2.68028 13.7177 2.56193 13.095 2.54915C12.2925 2.51415 12.0383 2.50415 10.0033 2.50415C7.96835 2.50415 7.70751 2.50415 6.91168 2.54915C6.2895 2.56128 5.67398 2.67965 5.09168 2.89915C4.59329 3.09165 4.14065 3.38621 3.76279 3.76392C3.38493 4.14164 3.0902 4.59417 2.89751 5.09248C2.6786 5.67549 2.56052 6.29151 2.54835 6.91415C2.51251 7.71582 2.50168 7.96998 2.50168 10.0058C2.50168 12.0408 2.50168 12.3 2.54835 13.0975C2.56085 13.7208 2.67835 14.3358 2.89751 14.92C3.09074 15.4181 3.38576 15.8705 3.76371 16.2481C4.14166 16.6258 4.59423 16.9205 5.09251 17.1133C5.67371 17.341 6.28949 17.4678 6.91334 17.4883C7.71585 17.5233 7.97001 17.5342 10.005 17.5342C12.04 17.5342 12.3008 17.5342 13.0967 17.4883C13.7193 17.4757 14.3352 17.3576 14.9183 17.1392C15.4165 16.946 15.8689 16.6511 16.2467 16.2733C16.6244 15.8955 16.9193 15.4431 17.1125 14.945C17.3317 14.3617 17.4492 13.7467 17.4617 13.1233C17.4975 12.3217 17.5083 12.0675 17.5083 10.0317C17.5083 7.99582 17.5083 7.73748 17.4617 6.93998C17.452 6.30854 17.3333 5.68352 17.1108 5.09248ZM16.0958 13.0358C16.0905 13.5161 16.0028 13.9918 15.8367 14.4425C15.7115 14.7665 15.5199 15.0608 15.2742 15.3064C15.0285 15.5519 14.7341 15.7434 14.41 15.8683C13.9644 16.0337 13.4936 16.1214 13.0183 16.1275C12.2267 16.1642 12.0033 16.1733 9.97335 16.1733C7.94168 16.1733 7.73418 16.1733 6.92751 16.1275C6.45245 16.1217 5.98195 16.034 5.53668 15.8683C5.21142 15.7441 4.91585 15.5531 4.66909 15.3075C4.42233 15.0618 4.22987 14.7672 4.10418 14.4425C3.94038 13.9967 3.85277 13.5265 3.84501 13.0517C3.80918 12.26 3.80085 12.0367 3.80085 10.0067C3.80085 7.97582 3.80085 7.76832 3.84501 6.96082C3.8504 6.48084 3.93806 6.00533 4.10418 5.55498C4.35835 4.89748 4.87918 4.37998 5.53668 4.12832C5.98217 3.96343 6.45253 3.87579 6.92751 3.86915C7.72001 3.83332 7.94251 3.82332 9.97335 3.82332C12.0042 3.82332 12.2125 3.82332 13.0183 3.86915C13.4937 3.87487 13.9645 3.96254 14.41 4.12832C14.7341 4.25354 15.0285 4.44515 15.2742 4.69084C15.5198 4.93653 15.7115 5.23088 15.8367 5.55498C16.0005 6.00078 16.0881 6.47095 16.0958 6.94582C16.1317 7.73832 16.1408 7.96082 16.1408 9.99165C16.1408 12.0217 16.1408 12.24 16.105 13.0367H16.0958V13.0358Z" fill="white"/>
</svg>
